HIERARCHY
ROOT Hips
{
 OFFSET 0.000000 0.000000 0.000000
 CHANNELS 6 Xposition Yposition Zposition Yrotation Xrotation Zrotation
 JOINT Chest
 {
  OFFSET 0.000000 9.585900 0.002600
  CHANNELS 3 Yrotation Xrotation Zrotation
  JOINT Chest2
  {
   OFFSET 0.000000 9.601200 -0.005300
   CHANNELS 3 Yrotation Xrotation Zrotation
   JOINT Chest3
   {
    OFFSET 0.000000 9.561800 0.000000
    CHANNELS 3 Yrotation Xrotation Zrotation
    JOINT Chest4
    {
     OFFSET 0.000000 9.552100 0.000000
     CHANNELS 3 Yrotation Xrotation Zrotation
     JOINT Neck
     {
      OFFSET 0.000000 14.453000 0.000000
      CHANNELS 3 Yrotation Xrotation Zrotation
      JOINT Head
      {
       OFFSET 0.000000 8.936500 -0.011300
       CHANNELS 3 Yrotation Xrotation Zrotation
       End Site
       {
        OFFSET 0.000000 17.073600 -0.006000
       }
      }
     }
     JOINT RightCollar
     {
      OFFSET -2.921100 9.558500 0.000000
      CHANNELS 3 Yrotation Xrotation Zrotation
      JOINT RightShoulder
      {
       OFFSET -13.519700 0.000000 0.000000
       CHANNELS 3 Yrotation Xrotation Zrotation
       JOINT RightElbow
       {
        OFFSET 0.000000 -29.696600 0.000000
        CHANNELS 3 Yrotation Xrotation Zrotation
        JOINT RightWrist
        {
         OFFSET 0.000000 -24.004700 0.000000
         CHANNELS 3 Yrotation Xrotation Zrotation
         End Site
         {
          OFFSET 0.000000 -17.728500 0.000000
         }
        }
       }
      }
     }
     JOINT LeftCollar
     {
      OFFSET 2.921100 9.558500 0.000000
      CHANNELS 3 Yrotation Xrotation Zrotation
      JOINT LeftShoulder
      {
       OFFSET 13.519700 0.000000 0.000000
       CHANNELS 3 Yrotation Xrotation Zrotation
       JOINT LeftElbow
       {
        OFFSET 0.000000 -29.696600 0.000000
        CHANNELS 3 Yrotation Xrotation Zrotation
        JOINT LeftWrist
        {
         OFFSET 0.000000 -24.004700 0.000000
         CHANNELS 3 Yrotation Xrotation Zrotation
         End Site
         {
          OFFSET 0.000000 -17.728500 0.000000
         }
        }
       }
      }
     }
    }
   }
  }
 }
 JOINT RightHip
 {
  OFFSET -7.771700 -0.012900 -0.001300
  CHANNELS 3 Yrotation Xrotation Zrotation
  JOINT RightKnee
  {
   OFFSET 0.000000 -40.869800 0.001200
   CHANNELS 3 Yrotation Xrotation Zrotation
   JOINT RightAnkle
   {
    OFFSET 0.000000 -39.717900 0.002100
    CHANNELS 3 Yrotation Xrotation Zrotation
    JOINT RightToe
    {
     OFFSET 0.000000 -4.965400 11.033500
     CHANNELS 3 Yrotation Xrotation Zrotation
     End Site
     {
      OFFSET 0.000000 -1.423100 5.872300
     }
    }
   }
  }
 }
 JOINT LeftHip
 {
  OFFSET 7.771700 -0.012900 -0.001300
  CHANNELS 3 Yrotation Xrotation Zrotation
  JOINT LeftKnee
  {
   OFFSET 0.000000 -40.869800 0.001200
   CHANNELS 3 Yrotation Xrotation Zrotation
   JOINT LeftAnkle
   {
    OFFSET 0.000000 -39.717900 0.002100
    CHANNELS 3 Yrotation Xrotation Zrotation
    JOINT LeftToe
    {
     OFFSET 0.000000 -4.965400 11.033500
     CHANNELS 3 Yrotation Xrotation Zrotation
     End Site
     {
      OFFSET 0.000000 -1.423100 5.872300
     }
    }
   }
  }
 }
}
MOTION
Frames: 9
Frame Time: 0.008333
0.000000 85.388000 0.000000 0.000000 -5.767877 0.000000 0.000000 11.653817 0.000000 0.000000 -5.885947 0.000000 0.000000 -0.000000 0.000000 0.000000 -0.000000 0.000000 0.000000 12.528835 0.000000 0.000000 0.711642 0.000000 0.000000 -0.000000 0.000000 0.000000 0.000000 -90.000000 0.000000 -2.309062 0.000000 0.000000 2.309062 0.000000 0.000000 -0.000000 0.000000 0.000000 -0.000000 90.000000 0.000000 -2.309062 0.000000 0.000000 2.309062 0.000000 0.000000 8.520406 0.000000 0.000000 1.905762 0.000000 -0.000000 -4.658285 0.000000 0.000000 -0.000000 0.000000 0.000000 8.520406 0.000000 0.000000 1.905762 0.000000 -0.000000 -4.658285 0.000000 0.000000 -0.000000 0.000000
-12.727695 55.351235 35.237617 -178.197108 -30.196156 -13.625838 0.671828 12.104245 5.614090 0.366842 7.173536 1.678367 0.497287 8.948444 2.092187 0.370785 7.160384 1.664669 -11.104229 27.897171 0.896217 -12.789610 5.926332 3.533485 -2.181398 1.518717 -4.891895 -10.523886 -7.919197 -2.329425 -79.877420 -44.187785 132.613458 6.247772 -2.047965 47.040099 -9.120661 2.053748 -2.953803 3.359074 -0.347615 -0.953360 -88.091982 -73.971976 98.583655 13.027784 -16.272394 -3.530132 -20.465272 -33.972362 10.061434 37.807286 84.207477 33.212619 -1.235579 -18.637473 1.893056 -1.176622 2.561481 -0.529198 -18.449517 -47.163340 19.069887 174.857306 79.536118 170.367841 -2.939146 -17.089710 2.470284 -0.291051 -1.165180 -0.141843
-12.729276 55.359017 35.238731 -178.234230 -30.273919 -13.596336 0.714337 12.186555 5.615933 0.375586 7.227337 1.708483 0.512627 8.998949 2.111679 0.382662 7.200832 1.679948 -10.929649 27.609109 1.032202 -12.606048 5.535370 3.649853 -2.171568 1.458969 -4.855624 -11.092666 -7.601224 -2.223817 -81.218446 -44.931939 133.353997 5.628738 -2.711525 44.776671 -9.143778 2.058860 -2.940277 3.316241 -0.449095 -0.943746 -88.375539 -73.936871 98.854497 13.042314 -16.275426 -3.690287 -20.384399 -33.913052 10.025579 37.674793 84.206013 33.081834 -1.242320 -18.620394 1.896672 -1.127543 2.551328 -0.527555 -18.384014 -47.083000 19.029266 174.888087 79.550414 170.386265 -2.933702 -17.080740 2.465321 -0.286743 -1.179187 -0.136683
-12.726432 55.363548 35.249113 -178.270770 -30.297147 -13.591219 0.745393 12.228254 5.655904 0.384801 7.236372 1.702444 0.533965 9.084701 2.154449 0.394275 7.241872 1.695749 -10.752002 27.266144 1.165821 -12.417307 5.074785 3.762619 -2.190613 1.381926 -4.865666 -11.670639 -7.217755 -2.031666 -82.549672 -45.717657 134.044063 5.067786 -3.352833 42.378642 -9.173713 2.067350 -2.930943 3.279634 -0.529492 -0.931817 -88.726933 -73.893616 99.195191 13.079909 -16.319990 -3.861115 -20.349921 -33.893022 10.036670 37.536153 84.187554 32.925316 -1.152268 -18.604675 1.884347 -1.193467 2.552177 -0.528439 -18.364319 -47.057744 19.046141 174.917089 79.565333 170.413599 -2.925917 -17.075962 2.461190 -0.287132 -1.177542 -0.136627
-12.725288 55.374974 35.247895 -178.351199 -30.414718 -13.554496 0.833217 12.356654 5.688464 0.402945 7.291747 1.728569 0.545344 9.114870 2.162817 0.404972 7.280280 1.711438 -10.572405 26.877958 1.292379 -12.223894 4.557937 3.866541 -2.222194 1.304972 -4.886800 -12.252032 -6.787862 -1.781296 -83.932588 -46.591363 134.710275 4.593750 -3.996179 39.873078 -9.213313 2.090532 -2.926726 3.251719 -0.585976 -0.912389 -89.155051 -73.912189 99.637177 13.088235 -16.409557 -4.058287 -20.223417 -33.803107 10.012056 37.346114 84.189346 32.733143 -1.161386 -18.573111 1.895411 -1.196534 2.529614 -0.529636 -18.203274 -46.875555 18.995096 175.001577 79.625355 170.517975 -3.048319 -17.323029 2.427462 -0.170610 -0.962377 -0.086479
-12.725251 55.380750 35.255430 -178.365317 -30.453262 -13.542544 0.852119 12.419975 5.711673 0.416903 7.342348 1.752606 0.553174 9.141253 2.170650 0.413840 7.314798 1.726247 -10.388027 26.454891 1.408719 -12.022063 3.998573 3.957232 -2.254787 1.248773 -4.899941 -12.824965 -6.342267 -1.493852 -85.454786 -47.611686 135.399191 4.222489 -4.677177 37.266269 -9.257025 2.127147 -2.923737 3.234406 -0.612402 -0.886517 -89.617120 -73.844559 100.078680 13.198888 -16.533556 -4.214712 -20.175438 -33.775105 10.004004 37.115970 84.191767 32.497280 -1.152308 -18.548050 1.896948 -1.171735 2.513907 -0.518509 -18.165386 -46.837181 18.972468 175.020650 79.644002 170.535263 -3.040677 -17.315226 2.426163 -0.168110 -0.962735 -0.084740
-12.725520 55.387716 35.259754 -178.374503 -30.507294 -13.532808 0.873589 12.498468 5.734839 0.422246 7.372438 1.763044 0.560610 9.178390 2.187517 0.409155 7.286381 1.707705 -10.174052 26.070225 1.534192 -11.803675 3.409594 4.029933 -2.273802 1.273002 -4.874971 -13.376037 -5.897768 -1.183392 -87.193763 -48.830072 136.166398 3.972976 -5.428035 34.546433 -9.283613 2.230950 -2.899625 3.227941 -0.602829 -0.860099 -90.101872 -73.792968 100.533783 13.312666 -16.679951 -4.356390 -20.133270 -33.726840 9.978113 37.024962 84.182913 32.398988 -1.117197 -18.532001 1.889853 -1.158520 2.504768 -0.512571 -18.117379 -46.783449 18.939134 174.985659 79.658378 170.501075 -3.042351 -17.303834 2.427405 -0.167518 -0.969217 -0.084690
-12.729312 55.383255 35.279987 -178.286042 -30.415577 -13.550540 0.774373 12.478067 5.747423 0.420131 7.376212 1.756848 0.561863 9.208674 2.201102 0.414902 7.265118 1.690364 -9.956544 25.658027 1.647246 -11.561192 2.803799 4.082468 -2.300554 1.303447 -4.840687 -13.889014 -5.473527 -0.860305 -89.228102 -50.283271 137.074006 3.866326 -6.260812 31.693566 -9.310386 2.321996 -2.876460 3.235632 -0.556015 -0.836541 -90.634262 -73.789646 101.035299 13.395965 -16.825302 -4.490053 -20.222121 -33.801031 9.986778 36.893191 84.177406 32.268613 -1.169168 -18.535831 1.905132 -1.157739 2.516822 -0.514540 -18.243381 -46.948931 18.939579 174.764043 79.628923 170.265993 -2.935515 -17.022717 2.461494 -0.279603 -1.189692 -0.134836
-12.731642 55.385980 35.286800 -178.280129 -30.426679 -13.541822 0.767563 12.521976 5.759554 0.420054 7.371242 1.749077 0.560740 9.222014 2.206871 0.425606 7.333682 1.728618 -9.744310 25.173359 1.723937 -11.290365 2.191953 4.116797 -2.339262 1.286948 -4.829043 -14.343881 -5.086902 -0.532197 -91.649336 -51.994301 138.196331 3.911801 -7.163567 28.670892 -9.345849 2.345001 -2.878753 3.268459 -0.474968 -0.813329 -91.183814 -73.819545 101.541630 13.475307 -16.966999 -4.602107 -20.208014 -33.792901 9.976235 36.792499 84.174118 32.171129 -1.219975 -18.528984 1.922931 -1.166847 2.515139 -0.520804 -18.214991 -46.945414 18.903757 174.700455 79.641133 170.214091 -2.936996 -17.008257 2.461597 -0.281492 -1.193863 -0.134400
